<svg xmlns="http://www.w3.org/2000/svg" width="100" height="100" viewBox="0 0 100 100">
<!-- Top-left teal bracket -->
<path d="M 28.10,33.05 L 27.40,32.85 L 26.35,31.40 L 26.35,23.50 L 26.85,21.40 L 28.05,19.50 L 29.80,17.95 L 31.90,16.95 L 42.10,16.85 L 42.60,17.05 L 43.25,18.00 L 43.35,18.90 L 43.05,19.70 L 42.30,20.25 L 41.40,20.55 L 33.20,20.55 L 31.15,21.40 L 30.05,23.00 L 29.95,31.60 L 28.80,32.85 L 28.10,33.05 Z" fill="#00A090" fill-rule="evenodd"/>
<!-- Top-right teal bracket -->
<path d="M 72.10,32.95 L 70.70,32.75 L 69.85,31.60 L 69.85,24.00 L 69.65,23.10 L 68.75,21.70 L 68.20,21.15 L 66.50,20.55 L 58.30,20.55 L 57.60,20.35 L 56.65,19.70 L 56.15,18.80 L 56.35,18.00 L 57.10,17.05 L 57.50,16.85 L 67.90,16.95 L 69.90,17.95 L 71.85,19.80 L 72.95,21.60 L 73.25,23.30 L 73.25,31.50 L 72.85,32.30 L 72.10,32.95 Z" fill="#00A090" fill-rule="evenodd"/>
<!-- Bottom-left teal bracket -->
<path d="M 41.90,59.15 L 31.70,58.95 L 29.70,57.85 L 28.05,56.30 L 26.85,54.30 L 26.35,52.00 L 26.35,44.90 L 26.65,44.10 L 27.60,43.15 L 28.80,43.25 L 29.95,44.50 L 29.95,52.00 L 30.15,53.20 L 30.95,53.90 L 30.95,54.60 L 33.10,55.85 L 39.40,55.95 L 39.80,55.55 L 42.50,55.85 L 43.05,56.30 L 43.35,57.80 L 42.60,58.95 L 41.90,59.15 Z" fill="#00A090" fill-rule="evenodd"/>
<!-- Bottom-right teal bracket -->
<path d="M 66.60,59.15 L 57.50,59.15 L 56.55,58.80 L 56.85,58.20 L 56.15,57.30 L 57.10,56.05 L 57.70,55.85 L 66.60,55.85 L 68.50,54.85 L 69.65,53.30 L 69.95,52.40 L 69.95,50.00 L 69.65,49.50 L 69.85,44.40 L 71.10,43.15 L 71.80,43.05 L 72.95,43.90 L 73.25,44.60 L 73.35,51.10 L 72.95,54.30 L 71.65,56.40 L 70.00,57.95 L 68.10,58.95 L 66.60,59.15 Z" fill="#00A090" fill-rule="evenodd"/>
<!-- Runner head -->
<path d="M 52.50,24.95 L 50.50,24.75 L 49.55,23.10 L 49.85,21.60 L 50.70,20.75 L 52.10,20.55 L 52.80,20.95 L 53.65,22.00 L 53.35,24.00 L 52.50,24.95 Z" fill="#000000" fill-rule="evenodd"/>
<!-- Runner body/arms -->
<path d="M 38.00,48.65 L 37.40,48.65 L 37.05,48.10 L 37.35,44.60 L 37.90,44.15 L 39.50,43.95 L 41.50,42.35 L 43.70,41.05 L 44.95,38.60 L 45.05,37.50 L 45.95,36.80 L 45.65,35.00 L 46.95,30.90 L 47.15,28.50 L 46.50,28.15 L 44.50,28.95 L 44.05,29.40 L 43.35,31.70 L 43.65,33.40 L 43.40,33.85 L 42.60,34.05 L 41.95,33.40 L 41.95,32.40 L 42.35,28.70 L 43.05,27.50 L 43.70,27.05 L 44.60,26.95 L 45.80,26.15 L 49.50,25.35 L 51.55,26.50 L 53.30,30.15 L 54.60,30.05 L 56.30,28.55 L 56.90,28.55 L 57.35,29.00 L 57.45,29.60 L 53.60,32.65 L 52.90,32.55 L 51.70,30.95 L 51.20,30.95 L 50.75,31.50 L 49.85,33.90 L 50.05,35.10 L 53.10,37.35 L 54.25,38.60 L 54.35,39.50 L 53.95,40.90 L 53.55,45.60 L 54.10,46.25 L 55.20,46.75 L 55.85,47.60 L 52.10,47.95 L 51.45,47.50 L 52.05,40.20 L 51.10,39.05 L 48.40,38.05 L 47.05,39.90 L 46.55,41.20 L 45.20,42.65 L 44.10,42.95 L 41.40,44.55 L 40.40,44.85 L 39.15,46.10 L 38.55,48.10 L 38.00,48.65 Z" fill="#000000" fill-rule="evenodd"/>
<!-- Runner leg/mountain -->
<path d="M 56.30,58.85 L 52.70,58.75 L 48.40,57.75 L 46.80,56.95 L 44.90,56.45 L 44.15,55.80 L 44.05,54.90 L 45.70,52.95 L 48.10,51.35 L 53.20,49.35 L 56.00,48.95 L 57.50,47.95 L 57.85,47.60 L 57.85,47.10 L 56.80,45.95 L 56.00,45.75 L 55.75,45.20 L 60.50,41.15 L 61.50,41.05 L 66.75,46.40 L 68.85,49.00 L 69.85,49.70 L 69.85,52.90 L 68.50,54.85 L 66.60,55.85 L 57.30,55.95 L 56.25,57.00 L 56.15,57.30 L 56.85,58.20 L 56.85,58.50 L 56.30,58.85 Z" fill="#000000" fill-rule="evenodd"/>
<!-- Mountain/terrain -->
<path d="M 39.40,55.95 L 32.80,55.75 L 30.95,54.60 L 30.95,53.90 L 31.50,53.25 L 35.50,51.15 L 41.30,49.15 L 43.90,48.85 L 46.00,48.15 L 48.00,48.05 L 49.00,47.55 L 49.50,47.55 L 49.85,47.90 L 49.95,48.50 L 49.30,49.15 L 46.90,49.95 L 43.10,51.95 L 40.95,53.90 L 39.40,55.95 Z" fill="#000000" fill-rule="evenodd"/>
</svg>
